<?xml version="1.0" encoding="UTF-8"?>
<svg width="19px" height="19px" viewBox="0 0 19 19" version="1.1" xmlns="http://www.w3.org/2000/svg" xmlns:xlink="http://www.w3.org/1999/xlink">
    <!-- Generator: Sketch 60 (88103) - https://sketch.com -->
    <title>jam-search</title>
    <desc>Created with Sketch.</desc>
    <g id="Symbols---Post-It-Notes" stroke="none" stroke-width="1" fill="none" fill-rule="evenodd">
        <g id="Nav-Bar-White" transform="translate(-319.000000, -34.000000)" fill-rule="nonzero">
            <g id="Nav-Bar">
                <g id="Group" transform="translate(317.000000, 30.256369)">
                    <g id="jam-search" transform="translate(0.000000, 1.743631)">
                        <g id="Icon" transform="translate(2.057143, 2.057143)" fill="#F4F4F4">
                            <path d="M8.44285714,14.4428571 C11.7565656,14.4428571 14.4428571,11.7565656 14.4428571,8.44285714 C14.4428571,5.12914864 11.7565656,2.44285714 8.44285714,2.44285714 C5.12914864,2.44285714 2.44285714,5.12914864 2.44285714,8.44285714 C2.44285714,11.7565656 5.12914864,14.4428571 8.44285714,14.4428571 Z M14.7628571,13.3488571 L18.3428571,16.9288571 C18.60263,17.1801167 18.7066184,17.5519909 18.6148549,17.9015517 C18.5230914,18.2511126 18.2498563,18.5239615 17.900166,18.6152304 C17.5504757,18.7064994 17.1787491,18.6019851 16.9278571,18.3418571 L13.3478571,14.7618571 C10.0113356,17.3518257 5.23620561,16.9017253 2.44240795,13.7339173 C-0.351389713,10.5661093 -0.201159753,5.77216648 2.78550336,2.78550336 C5.77216648,-0.201159753 10.5661093,-0.351389713 13.7339173,2.44240795 C16.9017253,5.23620561 17.3518257,10.0113356 14.7618571,13.3478571 L14.7628571,13.3488571 Z" id="Icon-Shape"></path>
                        </g>
                        <rect id="ViewBox" x="0" y="0" width="24" height="24"></rect>
                    </g>
                </g>
            </g>
        </g>
    </g>
</svg>