<?xml version="1.0" encoding="UTF-8"?>
<svg width="187px" height="48px" viewBox="0 0 187 48" version="1.1" xmlns="http://www.w3.org/2000/svg" xmlns:xlink="http://www.w3.org/1999/xlink">
    <!-- Generator: Sketch 60 (88103) - https://sketch.com -->
    <title>Logo</title>
    <desc>Created with Sketch.</desc>
    <defs>
        <polygon id="path-1" points="0.1108 0.10432 20.3428 0.10432 20.3428 24.8 0.1108 24.8"></polygon>
        <polygon id="path-3" points="0 47.68088 186.2768 47.68088 186.2768 8e-05 0 8e-05"></polygon>
    </defs>
    <g id="Symbols---Post-It-Notes" stroke="none" stroke-width="1" fill="none" fill-rule="evenodd">
        <g id="Nav-Bar-White" transform="translate(-40.000000, -15.000000)">
            <g id="Logo" transform="translate(40.000000, 15.000000)">
                <g id="Group-19">
                    <path d="M4.632,29.56016 L9.5032,29.56016 C10.864,29.56016 12.06,29.39616 13.092,29.06816 C14.124,28.74176 14.988,28.27696 15.6832,27.67696 C16.38,27.07696 16.9032,26.36096 17.256,25.52976 C17.608,24.69776 17.784,23.77696 17.784,22.76896 C17.784,20.72176 17.108,19.17696 15.756,18.13776 C14.404,17.09696 12.392,16.57696 9.72,16.57696 L4.632,16.57696 L4.632,29.56016 Z M4.632,32.94416 L4.632,47.29616 L0,47.29616 L0,12.90496 L9.72,12.90496 C11.896,12.90496 13.776,13.12496 15.36,13.56576 C16.944,14.00576 18.2512,14.64176 19.284,15.47376 C20.3152,16.30576 21.08,17.30976 21.5768,18.48496 C22.072,19.66096 22.32,20.97696 22.32,22.43296 C22.32,23.64896 22.128,24.78496 21.744,25.84176 C21.36,26.89696 20.804,27.84496 20.0768,28.68496 C19.3488,29.52416 18.4592,30.24176 17.4128,30.83216 C16.364,31.42416 15.176,31.87296 13.848,32.17696 C14.424,32.51296 14.936,33.00096 15.3832,33.64176 L25.4152,47.29616 L21.288,47.29616 C20.44,47.29616 19.8152,46.96976 19.4152,46.31376 L10.488,34.02416 C10.216,33.64176 9.9192,33.36496 9.6,33.19616 C9.2808,33.02896 8.8,32.94416 8.16,32.94416 L4.632,32.94416 Z" id="Fill-1" fill="#C03F26"></path>
                    <path d="M39.47968,25.74536 C37.41568,25.74536 35.79248,26.34136 34.60768,27.53256 C33.42368,28.72456 32.68768,30.37736 32.39968,32.48856 L45.62368,32.48856 C45.62368,31.49576 45.48768,30.58856 45.21568,29.76456 C44.94368,28.94136 44.54368,28.22856 44.01568,27.62936 C43.48768,27.02936 42.84368,26.56536 42.08448,26.23736 C41.32368,25.90936 40.45568,25.74536 39.47968,25.74536 M39.38448,22.60136 C40.83888,22.60136 42.18368,22.84536 43.41568,23.33256 C44.64768,23.82216 45.71168,24.52536 46.60768,25.44536 C47.50288,26.36536 48.20368,27.50136 48.70768,28.85256 C49.21168,30.20536 49.46368,31.74456 49.46368,33.47256 C49.46368,34.14456 49.39248,34.59336 49.24848,34.81656 C49.10288,35.04136 48.83088,35.15256 48.43168,35.15256 L32.25648,35.15256 C32.28768,36.68856 32.49568,38.02456 32.87968,39.16056 C33.26368,40.29736 33.79248,41.24456 34.46368,42.00376 C35.13568,42.76456 35.93568,43.33336 36.86368,43.70856 C37.79248,44.08536 38.83168,44.27256 39.98448,44.27256 C41.05568,44.27256 41.97968,44.14936 42.75648,43.90056 C43.53088,43.65256 44.19968,43.38536 44.75968,43.09576 C45.32048,42.80856 45.78768,42.54136 46.16368,42.29336 C46.53888,42.04456 46.86368,41.92136 47.13568,41.92136 C47.48768,41.92136 47.75968,42.05736 47.95168,42.32856 L49.15168,43.88856 C48.62368,44.52856 47.99248,45.08536 47.25648,45.55736 C46.52048,46.02936 45.73168,46.41656 44.89248,46.72136 C44.05168,47.02456 43.18288,47.25256 42.28768,47.40456 C41.39248,47.55736 40.50288,47.63256 39.62368,47.63256 C37.94368,47.63256 36.39568,47.34776 34.97968,46.78056 C33.56368,46.21336 32.33968,45.38056 31.30768,44.28536 C30.27568,43.18856 29.47168,41.83336 28.89568,40.21656 C28.32048,38.60056 28.03168,36.74456 28.03168,34.64936 C28.03168,32.95256 28.29248,31.36936 28.81168,29.89576 C29.33088,28.42456 30.07968,27.14936 31.05648,26.06856 C32.03088,24.98936 33.22368,24.14136 34.63168,23.52536 C36.03888,22.90936 37.62368,22.60136 39.38448,22.60136" id="Fill-3" fill="#C03F26"></path>
                    <path d="M55.87184,47.29648 L55.87184,26.63248 L53.18304,26.32128 C52.84704,26.24128 52.57184,26.11728 52.35504,25.94928 C52.13904,25.78128 52.03104,25.53728 52.03104,25.21728 L52.03104,23.46528 L55.87184,23.46528 L55.87184,21.11328 C55.87184,19.72128 56.06704,18.48528 56.45904,17.40448 C56.85184,16.32528 57.41104,15.41328 58.13904,14.66848 C58.86704,13.92528 59.74384,13.36128 60.76704,12.97728 C61.79024,12.59408 62.94384,12.40128 64.22304,12.40128 C65.31104,12.40128 66.31904,12.56128 67.24704,12.88128 L67.15184,15.01728 C67.13504,15.33728 66.99904,15.53008 66.74384,15.59408 C66.48784,15.65808 66.12704,15.68928 65.66304,15.68928 L64.91984,15.68928 C64.18304,15.68928 63.51584,15.78528 62.91584,15.97728 C62.31584,16.16848 61.79984,16.48128 61.36704,16.91328 C60.93584,17.34528 60.60304,17.91328 60.37184,18.61728 C60.13904,19.32208 60.02304,20.19408 60.02304,21.23248 L60.02304,23.46528 L67.05504,23.46528 L67.05504,26.56128 L60.16704,26.56128 L60.16704,47.29648 L55.87184,47.29648 Z" id="Fill-5" fill="#C03F26"></path>
                    <g id="Group-9" transform="translate(71.200000, 22.880880)">
                        <mask id="mask-2" fill="white">
                            <use xlink:href="#path-1"></use>
                        </mask>
                        <g id="Clip-8"></g>
                        <path d="M4.3828,0.10432 L4.3828,15.60752 C4.3828,17.44832 4.806,18.87152 5.6548,19.87952 C6.5028,20.88752 7.7828,21.39152 9.4956,21.39152 C10.7428,21.39152 11.9188,21.09632 13.0228,20.50432 C14.1268,19.91232 15.142,19.08752 16.07,18.03232 L16.07,0.10432 L20.3428,0.10432 L20.3428,24.41552 L17.7988,24.41552 C17.1908,24.41552 16.806,24.12032 16.6468,23.52832 L16.3108,20.91232 C15.2548,22.07952 14.07,23.02032 12.7596,23.73312 C11.4468,24.44352 9.942,24.80032 8.2468,24.80032 C6.9188,24.80032 5.7468,24.57952 4.7316,24.14032 C3.714,23.70032 2.8628,23.07952 2.1748,22.27952 C1.4868,21.47952 0.97,20.51232 0.6268,19.37632 C0.2828,18.24032 0.1108,16.98432 0.1108,15.60752 L0.1108,0.10432 L4.3828,0.10432 Z" id="Fill-7" fill="#C03F26" mask="url(#mask-2)"></path>
                    </g>
                    <mask id="mask-4" fill="white">
                        <use xlink:href="#path-3"></use>
                    </mask>
                    <g id="Clip-11"></g>
                    <polygon id="Fill-10" fill="#29708F" mask="url(#mask-4)" points="95.7904 47.29688 103.2312 47.29688 103.2312 11.36888 95.7904 11.36888"></polygon>
                    <path d="M135.50936,47.29648 L135.50936,22.40928 L140.11736,22.40928 C140.58136,22.40928 140.96856,22.51408 141.28136,22.72128 C141.59336,22.93008 141.81256,23.24128 141.94056,23.65808 L142.37336,25.09648 C142.85336,24.65008 143.34936,24.23248 143.86056,23.84928 C144.37336,23.46528 144.92136,23.14128 145.50536,22.87728 C146.08936,22.61328 146.72136,22.40528 147.40136,22.25328 C148.08136,22.10128 148.82136,22.02528 149.62216,22.02528 C150.98136,22.02528 152.18536,22.26128 153.23256,22.73248 C154.28136,23.20528 155.16536,23.86128 155.88536,24.70128 C156.60536,25.54128 157.14936,26.54128 157.51736,27.70128 C157.88536,28.86048 158.06856,30.12128 158.06856,31.48048 L158.06856,47.29648 L150.62936,47.29648 L150.62936,31.48048 C150.62936,30.26448 150.34936,29.31648 149.78936,28.63648 C149.22856,27.95808 148.40456,27.61728 147.31736,27.61728 C146.50136,27.61728 145.73256,27.79408 145.01336,28.14448 C144.29336,28.49648 143.60456,28.96928 142.94936,29.56048 L142.94936,47.29648 L135.50936,47.29648 Z" id="Fill-12" fill="#29708F" mask="url(#mask-4)"></path>
                    <path d="M169.18904,11.3688 L169.18904,31.504 L170.29224,31.504 C170.75624,31.504 171.11224,31.4416 171.36104,31.3136 C171.60744,31.1856 171.84424,30.952 172.06904,30.6168 L176.77224,23.6096 C177.04424,23.1936 177.36904,22.8888 177.74504,22.6968 C178.12024,22.5048 178.59704,22.4096 179.17224,22.4096 L185.98904,22.4096 L179.55624,31.2648 C179.25304,31.6808 178.92024,32.0496 178.56104,32.368 C178.20104,32.688 177.81224,32.9776 177.39704,33.232 C178.11704,33.7776 178.74024,34.496 179.26904,35.3928 L186.27624,47.2968 L179.55624,47.2968 C178.99704,47.2968 178.51224,47.2056 178.10504,47.0216 C177.69704,46.8368 177.36424,46.5136 177.10824,46.0496 L172.40504,37.2416 C172.18024,36.8416 171.94824,36.5808 171.70824,36.46 C171.46904,36.3416 171.10824,36.2808 170.62904,36.2808 L169.18904,36.2808 L169.18904,47.2968 L161.74824,47.2968 L161.74824,11.3688 L169.18904,11.3688 Z" id="Fill-13" fill="#29708F" mask="url(#mask-4)"></path>
                    <polygon id="Fill-14" fill="#29708F" mask="url(#mask-4)" points="120.47656 40.66328 118.59656 37.99928 116.75816 37.99928 116.75816 47.29688 124.19736 47.29688 124.19736 37.99928 122.35656 37.99928"></polygon>
                    <path d="M134.74528,14.2672 C134.74528,6.3872 128.35808,0 120.47648,0 C112.59728,0 106.21088,6.3872 106.21088,14.2672 C106.21088,18.5024 108.05808,22.3056 110.98928,24.9184 L120.47648,38.3664 L129.96608,24.9184 C132.89728,22.3056 134.74528,18.5024 134.74528,14.2672" id="Fill-15" fill="#83C341" mask="url(#mask-4)"></path>
                    <path d="M132.42888,14.2672 C132.42888,20.8672 127.07848,26.2176 120.47688,26.2176 C113.87848,26.2176 108.52728,20.8672 108.52728,14.2672 C108.52728,7.6672 113.87848,2.316 120.47688,2.316 C127.07848,2.316 132.42888,7.6672 132.42888,14.2672" id="Fill-16" fill="#FEFEFE" mask="url(#mask-4)"></path>
                    <path d="M125.618,7.9336 C125.2676,8.0104 123.442,8.3664 122.7388,8.2296 C122.0356,8.0944 121.0996,7.7192 120.9556,8.208 C120.8124,8.6968 120.8604,9.4576 121.6292,9.6232 C122.3988,9.7888 123.1908,9.8928 123.6188,10.0032 C124.2804,10.1728 123.7188,11.8456 123.342,12.4096 C123.0604,12.828 120.7268,15.3064 120.7268,15.3064 C120.7268,15.3064 120.2748,15.8384 120.7124,16.092 C121.1516,16.3448 121.4428,16.16 121.91,15.6872 C122.2396,15.356 122.8356,14.6832 123.338,14.2032 C123.338,14.2032 123.8948,13.4352 123.942,13.4592 C123.9924,13.4832 123.49,14.3048 123.49,14.3048 C122.9108,14.9936 121.7868,16.1096 121.7684,16.3592 C121.7444,16.6856 122.1596,16.956 122.6324,16.672 C122.7596,16.5944 123.7924,15.4664 124.4796,14.7376 C124.4796,14.7376 124.8636,14.0848 124.9636,13.9688 C124.9812,13.948 124.9828,13.904 125.0324,13.932 C125.0796,13.9608 124.6076,14.8144 124.6076,14.8144 C124.0436,15.508 123.1772,16.416 123.1628,16.5736 C123.1396,16.7984 123.5508,17.064 123.8348,16.904 C124.0468,16.784 125.0724,15.8232 125.5908,15.112 C125.7836,14.8472 125.9852,14.3576 126.0148,14.3832 C126.022,14.3904 126.0868,14.408 126.07,14.4864 C126.0236,14.6984 125.8348,15.124 125.73,15.264 C125.3156,15.8168 124.6788,16.4 124.9972,16.6264 C125.4284,16.9328 125.7804,16.3032 126.7516,15.216 C127.722,14.1272 128.714,13.3544 129.2836,12.4512 C129.8524,11.5512 130.0356,11.036 130.2964,10.7512 C130.3764,10.6632 131.1548,10.1 132.102,9.4256 C131.5812,8.2128 130.8692,7.104 130.0148,6.1216 C129.0852,7.0016 127.8668,8.092 127.558,8.0784 C127.0412,8.0528 125.97,7.856 125.618,7.9336" id="Fill-17" fill="#83C341" mask="url(#mask-4)"></path>
                    <path d="M114.98128,20.68592 C115.33248,20.60912 117.15808,20.25312 117.86128,20.38992 C118.56448,20.52512 119.50128,20.90032 119.64528,20.41152 C119.78848,19.92352 119.73968,19.16272 118.97168,18.99632 C118.20208,18.82992 117.40928,18.72672 116.98128,18.61712 C116.31968,18.44672 116.88208,16.77472 117.25888,16.21072 C117.53968,15.79232 119.87248,13.31392 119.87248,13.31392 C119.87248,13.31392 120.32528,12.78112 119.88768,12.52832 C119.44848,12.27472 119.15808,12.45952 118.69088,12.93312 C118.36128,13.26432 117.76448,13.93712 117.26288,14.41632 C117.26288,14.41632 116.70528,15.18432 116.65728,15.16112 C116.60768,15.13632 117.10928,14.31552 117.10928,14.31552 C117.68928,13.62672 118.81328,12.51072 118.83168,12.26112 C118.85568,11.93392 118.44048,11.66352 117.96768,11.94832 C117.84048,12.02512 116.80768,13.15312 116.12048,13.88272 C116.12048,13.88272 115.73728,14.53472 115.63808,14.65152 C115.61808,14.67152 115.61808,14.71552 115.56848,14.68752 C115.52048,14.65952 115.99328,13.80592 115.99328,13.80592 C116.55648,13.11232 117.42288,12.20352 117.43808,12.04592 C117.46048,11.82192 117.04848,11.55552 116.76448,11.71552 C116.55328,11.83552 115.52688,12.79712 115.00928,13.50752 C114.81808,13.77232 114.61488,14.26272 114.58608,14.23632 C114.57728,14.22992 114.51328,14.21152 114.53008,14.13312 C114.57648,13.92192 114.76608,13.49552 114.87088,13.35632 C115.28528,12.80272 115.92288,12.22032 115.60288,11.99312 C115.17168,11.68752 114.81968,12.31712 113.84848,13.40432 C112.87808,14.49232 111.88688,15.26592 111.31728,16.16832 C110.74768,17.06912 110.56448,17.58432 110.30448,17.86912 C110.23088,17.94992 109.55968,18.43712 108.71168,19.04112 C109.19408,20.26912 109.85648,21.40592 110.67648,22.41072 C111.59408,21.54832 112.74368,20.52832 113.04288,20.54192 C113.55968,20.56672 114.63008,20.76432 114.98128,20.68592" id="Fill-18" fill="#83C341" mask="url(#mask-4)"></path>
                </g>
            </g>
        </g>
    </g>
</svg>